<?xml version="1.0" encoding="UTF-8"?>
<!DOCTYPE svg PUBLIC "-//W3C//DTD SVG 1.1//EN" "http://www.w3.org/Graphics/SVG/1.1/DTD/svg11.dtd">
<svg xmlns="http://www.w3.org/2000/svg" version="1.1" width="235px" height="229px" style="shape-rendering:geometricPrecision; text-rendering:geometricPrecision; image-rendering:optimizeQuality; fill-rule:evenodd; clip-rule:evenodd" xmlns:xlink="http://www.w3.org/1999/xlink">
<g><path style="opacity:0.97" fill="#13102d" d="M 115.5,-0.5 C 115.833,-0.5 116.167,-0.5 116.5,-0.5C 97.1667,60.5 77.8333,121.5 58.5,182.5C 38.8333,182.5 19.1667,182.5 -0.5,182.5C -0.5,181.5 -0.5,180.5 -0.5,179.5C 38.6622,119.848 77.3289,59.8482 115.5,-0.5 Z"/></g>
<g><path style="opacity:0.97" fill="#51c2c0" d="M 117.5,-0.5 C 117.833,-0.5 118.167,-0.5 118.5,-0.5C 156.671,59.8482 195.338,119.848 234.5,179.5C 234.5,180.5 234.5,181.5 234.5,182.5C 214.833,182.5 195.167,182.5 175.5,182.5C 156.613,122.59 137.279,62.9237 117.5,3.5C 117.5,2.16667 117.5,0.833333 117.5,-0.5 Z"/></g>
<g><path style="opacity:0.992" fill="#46a3cb" d="M 117.5,3.5 C 137.279,62.9237 156.613,122.59 175.5,182.5C 156.5,197.833 137.5,213.167 118.5,228.5C 118.167,228.5 117.833,228.5 117.5,228.5C 117.5,153.5 117.5,78.5 117.5,3.5 Z"/></g>
<g><path style="opacity:0.993" fill="#30245f" d="M 116.5,-0.5 C 116.833,-0.5 117.167,-0.5 117.5,-0.5C 117.5,0.833333 117.5,2.16667 117.5,3.5C 117.5,78.5 117.5,153.5 117.5,228.5C 116.833,228.5 116.167,228.5 115.5,228.5C 96.5,213.167 77.5,197.833 58.5,182.5C 77.8333,121.5 97.1667,60.5 116.5,-0.5 Z"/></g>
</svg>
