<?xml version="1.0" encoding="UTF-8"?>
<!DOCTYPE svg PUBLIC "-//W3C//DTD SVG 1.1//EN" "http://www.w3.org/Graphics/SVG/1.1/DTD/svg11.dtd">
<svg xmlns="http://www.w3.org/2000/svg" version="1.1" width="100px" height="100px" style="shape-rendering:geometricPrecision; text-rendering:geometricPrecision; image-rendering:optimizeQuality; fill-rule:evenodd; clip-rule:evenodd" xmlns:xlink="http://www.w3.org/1999/xlink">
<g><path style="opacity:0.729" fill="#fefffe" d="M 39.5,-0.5 C 46.1667,-0.5 52.8333,-0.5 59.5,-0.5C 80.5,5.16667 93.8333,18.5 99.5,39.5C 99.5,46.1667 99.5,52.8333 99.5,59.5C 93.8333,80.5 80.5,93.8333 59.5,99.5C 52.8333,99.5 46.1667,99.5 39.5,99.5C 18.5,93.8333 5.16667,80.5 -0.5,59.5C -0.5,52.8333 -0.5,46.1667 -0.5,39.5C 5.16667,18.5 18.5,5.16667 39.5,-0.5 Z M 48.5,2.5 C 77.0088,5.34172 93.0088,21.0084 96.5,49.5C 93.1667,77.5 77.5,93.1667 49.5,96.5C 21.5,93.1667 5.83333,77.5 2.5,49.5C 5.80169,21.8664 21.135,6.19977 48.5,2.5 Z M 38.5,32.5 C 47.9428,37.7249 57.2761,43.2249 66.5,49C 57.5,54.5 48.5,60 39.5,65.5C 38.5012,54.5202 38.1679,43.5202 38.5,32.5 Z"/></g>
<g><path style="opacity:0.791" fill="#fefffe" d="M 34.5,26.5 C 36.9892,26.2978 39.3225,26.7978 41.5,28C 50.9989,34.2505 60.6656,40.2505 70.5,46C 71.8333,48 71.8333,50 70.5,52C 60.1667,58.3333 49.8333,64.6667 39.5,71C 37.8659,71.4935 36.1992,71.6602 34.5,71.5C 34.5,56.5 34.5,41.5 34.5,26.5 Z M 38.5,32.5 C 38.1679,43.5202 38.5012,54.5202 39.5,65.5C 48.5,60 57.5,54.5 66.5,49C 57.2761,43.2249 47.9428,37.7249 38.5,32.5 Z"/></g>
</svg>
